<?xml version="1.0" encoding="UTF-8"?>
<svg id="Layer_2" data-name="Layer 2" xmlns="http://www.w3.org/2000/svg" xmlns:xlink="http://www.w3.org/1999/xlink" viewBox="0 0 440.97 109.16">
  <defs>
    <style>
      .cls-1 {
        fill: #061717;
      }

      .cls-2 {
        fill: url(#linear-gradient);
      }
    </style>
    <linearGradient id="linear-gradient" x1="243.43" y1="67.64" x2="312.21" y2="67.64" gradientUnits="userSpaceOnUse">
      <stop offset="0" stop-color="#ef4538"/>
      <stop offset="1" stop-color="#f26a51"/>
    </linearGradient>
  </defs>
  <g id="Layer_1-2" data-name="Layer 1">
    <g>
      <polygon class="cls-1" points="74.91 70.59 61.28 28.55 45.35 28.55 31.59 70.72 18.22 28.55 0 28.55 22.68 93.52 38.85 93.52 52.99 50.59 67.39 93.52 83.44 93.52 105.1 28.55 88.03 28.55 74.91 70.59"/>
      <polygon class="cls-1" points="234.49 42.29 234.49 28.03 180.61 28.03 180.61 42.55 212.71 42.55 179.33 78.98 179.33 92.99 235.77 92.99 235.77 78.47 201.88 78.47 234.49 42.29"/>
      <polygon class="cls-1" points="388.1 70.06 374.47 28.03 358.55 28.03 344.79 70.19 331.41 28.03 313.19 28.03 335.87 92.99 352.05 92.99 366.19 50.06 380.58 92.99 396.64 92.99 418.29 28.03 401.22 28.03 388.1 70.06"/>
      <rect class="cls-1" x="424.15" width="16.81" height="92.99"/>
      <path class="cls-2" d="M310.12,48.7c-.15-.42-.3-.8-.45-1.2-.17-.42-.35-.85-.55-1.27-.27-.6-.55-1.15-.85-1.72-.15-.32-.32-.62-.52-.95-.15-.3-.32-.6-.52-.9-3.74-6.13-9.35-11.01-16.02-13.83-.52-.22-1.02-.42-1.57-.62-.4-.15-.8-.3-1.22-.42-3.34-1.1-6.9-1.67-10.59-1.67s-7.25.57-10.59,1.67c-.42.12-.82.27-1.22.42-.55.2-1.05.4-1.57.62-4.11,1.72-7.83,4.24-10.94,7.35-6.23,6.23-10.07,14.83-10.07,24.32,0,18.99,15.4,34.39,34.39,34.39h0s0,0,0,0v14.25l24.32-24.32s0,0,0,0c2.17-2.19,4.06-4.66,5.61-7.38.2-.32.37-.62.52-.95.3-.57.57-1.12.85-1.72.2-.42.37-.85.55-1.27.15-.4.3-.77.45-1.2.17-.42.32-.87.47-1.35,1.05-3.29,1.62-6.8,1.62-10.47s-.57-7.18-1.62-10.47c-.15-.47-.3-.92-.47-1.35ZM294.56,65.91l-.06.18-.09.23-.14.41-.15.39-.09.24c-.04.09-.08.19-.12.27l-.04.08-.04.08c-.15.33-.3.63-.47.95l-.05.1-.03.05-.14.25c-.78,1.37-1.75,2.65-2.9,3.82-3.34,3.3-7.75,5.12-12.41,5.12-9.69,0-17.58-7.88-17.58-17.58,0-4.7,1.83-9.12,5.14-12.43,1.61-1.61,3.47-2.87,5.54-3.73l.07-.03.07-.03c.23-.1.45-.19.69-.28l.08-.03.08-.03.24-.09.08-.02.25-.08c1.68-.55,3.48-.83,5.35-.83s3.67.28,5.35.83l.25.08.08.02.24.09.08.03.08.03c.24.09.46.18.78.31,3.37,1.42,6.28,3.94,8.2,7.09l.06.1.13.26.25.41.05.1c.17.32.32.62.47.95l.03.06.04.08c.04.1.08.19.12.29l.09.25.14.38.14.41.09.23.07.21c.55,1.73.83,3.53.83,5.37s-.28,3.64-.84,5.4Z"/>
      <path class="cls-1" d="M157.62,56.58c1.32,5.76-.32,11.98-4.69,16.35-5.11,5.11-12.77,6.49-19.21,3.81l35.37-35.37c-1.23-1.83-2.64-3.56-4.26-5.18-1.54-1.54-3.17-2.89-4.91-4.08-.09-.06-.18-.13-.28-.19-13.38-8.97-31.65-7.54-43.46,4.26-11.81,11.81-13.23,30.08-4.26,43.46,1.24,1.83,2.64,3.56,4.26,5.18,1.62,1.62,3.35,3.03,5.18,4.26,13.38,8.97,31.65,7.54,43.46-4.26,9.62-9.62,12.35-23.55,8.18-35.62l-15.39,7.38ZM128.09,48.09c5.11-5.11,12.77-6.49,19.2-3.8l-23,23c-2.69-6.46-1.3-14.1,3.8-19.2Z"/>
    </g>
  </g>
</svg>